<mxfile host="app.diagrams.net" modified="2021-04-19T11:08:10.871Z" agent="5.0 (Macintosh; Intel Mac OS X 10_15_7) AppleWebKit/605.1.15 (KHTML, like Gecko) Version/13.1.3 Safari/605.1.15" etag="bed91cuLisA6kgWlmWmy" version="14.6.1" type="github" pages="2">
  <diagram id="C5RBs43oDa-KdzZeNtuy" name="Page-1">
    <mxGraphModel dx="1186" dy="576" grid="1" gridSize="10" guides="1" tooltips="1" connect="1" arrows="1" fold="1" page="1" pageScale="1" pageWidth="827" pageHeight="1169" math="0" shadow="0">
      <root>
        <mxCell id="WIyWlLk6GJQsqaUBKTNV-0" />
        <mxCell id="WIyWlLk6GJQsqaUBKTNV-1" parent="WIyWlLk6GJQsqaUBKTNV-0" />
        <mxCell id="zkfFHV4jXpPFQw0GAbJ--0" value="Person" style="swimlane;fontStyle=2;align=center;verticalAlign=top;childLayout=stackLayout;horizontal=1;startSize=26;horizontalStack=0;resizeParent=1;resizeLast=0;collapsible=1;marginBottom=0;rounded=0;shadow=0;strokeWidth=1;" parent="WIyWlLk6GJQsqaUBKTNV-1" vertex="1">
          <mxGeometry x="220" y="120" width="160" height="138" as="geometry">
            <mxRectangle x="230" y="140" width="160" height="26" as="alternateBounds" />
          </mxGeometry>
        </mxCell>
        <mxCell id="zkfFHV4jXpPFQw0GAbJ--1" value="Name" style="text;align=left;verticalAlign=top;spacingLeft=4;spacingRight=4;overflow=hidden;rotatable=0;points=[[0,0.5],[1,0.5]];portConstraint=eastwest;" parent="zkfFHV4jXpPFQw0GAbJ--0" vertex="1">
          <mxGeometry y="26" width="160" height="26" as="geometry" />
        </mxCell>
        <mxCell id="zkfFHV4jXpPFQw0GAbJ--2" value="Phone Number" style="text;align=left;verticalAlign=top;spacingLeft=4;spacingRight=4;overflow=hidden;rotatable=0;points=[[0,0.5],[1,0.5]];portConstraint=eastwest;rounded=0;shadow=0;html=0;" parent="zkfFHV4jXpPFQw0GAbJ--0" vertex="1">
          <mxGeometry y="52" width="160" height="26" as="geometry" />
        </mxCell>
        <mxCell id="zkfFHV4jXpPFQw0GAbJ--3" value="Email Address" style="text;align=left;verticalAlign=top;spacingLeft=4;spacingRight=4;overflow=hidden;rotatable=0;points=[[0,0.5],[1,0.5]];portConstraint=eastwest;rounded=0;shadow=0;html=0;" parent="zkfFHV4jXpPFQw0GAbJ--0" vertex="1">
          <mxGeometry y="78" width="160" height="26" as="geometry" />
        </mxCell>
        <mxCell id="zkfFHV4jXpPFQw0GAbJ--4" value="" style="line;html=1;strokeWidth=1;align=left;verticalAlign=middle;spacingTop=-1;spacingLeft=3;spacingRight=3;rotatable=0;labelPosition=right;points=[];portConstraint=eastwest;" parent="zkfFHV4jXpPFQw0GAbJ--0" vertex="1">
          <mxGeometry y="104" width="160" height="8" as="geometry" />
        </mxCell>
        <mxCell id="zkfFHV4jXpPFQw0GAbJ--5" value="Purchase Parking Pass" style="text;align=left;verticalAlign=top;spacingLeft=4;spacingRight=4;overflow=hidden;rotatable=0;points=[[0,0.5],[1,0.5]];portConstraint=eastwest;" parent="zkfFHV4jXpPFQw0GAbJ--0" vertex="1">
          <mxGeometry y="112" width="160" height="26" as="geometry" />
        </mxCell>
        <mxCell id="zkfFHV4jXpPFQw0GAbJ--6" value="Student" style="swimlane;fontStyle=0;align=center;verticalAlign=top;childLayout=stackLayout;horizontal=1;startSize=26;horizontalStack=0;resizeParent=1;resizeLast=0;collapsible=1;marginBottom=0;rounded=0;shadow=0;strokeWidth=1;" parent="WIyWlLk6GJQsqaUBKTNV-1" vertex="1">
          <mxGeometry x="120" y="360" width="160" height="138" as="geometry">
            <mxRectangle x="130" y="380" width="160" height="26" as="alternateBounds" />
          </mxGeometry>
        </mxCell>
        <mxCell id="zkfFHV4jXpPFQw0GAbJ--7" value="Student Number" style="text;align=left;verticalAlign=top;spacingLeft=4;spacingRight=4;overflow=hidden;rotatable=0;points=[[0,0.5],[1,0.5]];portConstraint=eastwest;" parent="zkfFHV4jXpPFQw0GAbJ--6" vertex="1">
          <mxGeometry y="26" width="160" height="26" as="geometry" />
        </mxCell>
        <mxCell id="zkfFHV4jXpPFQw0GAbJ--8" value="Average Mark" style="text;align=left;verticalAlign=top;spacingLeft=4;spacingRight=4;overflow=hidden;rotatable=0;points=[[0,0.5],[1,0.5]];portConstraint=eastwest;rounded=0;shadow=0;html=0;" parent="zkfFHV4jXpPFQw0GAbJ--6" vertex="1">
          <mxGeometry y="52" width="160" height="26" as="geometry" />
        </mxCell>
        <mxCell id="zkfFHV4jXpPFQw0GAbJ--9" value="" style="line;html=1;strokeWidth=1;align=left;verticalAlign=middle;spacingTop=-1;spacingLeft=3;spacingRight=3;rotatable=0;labelPosition=right;points=[];portConstraint=eastwest;" parent="zkfFHV4jXpPFQw0GAbJ--6" vertex="1">
          <mxGeometry y="78" width="160" height="8" as="geometry" />
        </mxCell>
        <mxCell id="zkfFHV4jXpPFQw0GAbJ--10" value="Is Eligible To Enroll" style="text;align=left;verticalAlign=top;spacingLeft=4;spacingRight=4;overflow=hidden;rotatable=0;points=[[0,0.5],[1,0.5]];portConstraint=eastwest;fontStyle=4" parent="zkfFHV4jXpPFQw0GAbJ--6" vertex="1">
          <mxGeometry y="86" width="160" height="26" as="geometry" />
        </mxCell>
        <mxCell id="zkfFHV4jXpPFQw0GAbJ--11" value="Get Seminars Taken" style="text;align=left;verticalAlign=top;spacingLeft=4;spacingRight=4;overflow=hidden;rotatable=0;points=[[0,0.5],[1,0.5]];portConstraint=eastwest;" parent="zkfFHV4jXpPFQw0GAbJ--6" vertex="1">
          <mxGeometry y="112" width="160" height="26" as="geometry" />
        </mxCell>
        <mxCell id="zkfFHV4jXpPFQw0GAbJ--12" value="" style="endArrow=block;endSize=10;endFill=0;shadow=0;strokeWidth=1;rounded=0;edgeStyle=elbowEdgeStyle;elbow=vertical;" parent="WIyWlLk6GJQsqaUBKTNV-1" source="zkfFHV4jXpPFQw0GAbJ--6" target="zkfFHV4jXpPFQw0GAbJ--0" edge="1">
          <mxGeometry width="160" relative="1" as="geometry">
            <mxPoint x="200" y="203" as="sourcePoint" />
            <mxPoint x="200" y="203" as="targetPoint" />
          </mxGeometry>
        </mxCell>
        <mxCell id="zkfFHV4jXpPFQw0GAbJ--13" value="Professor" style="swimlane;fontStyle=0;align=center;verticalAlign=top;childLayout=stackLayout;horizontal=1;startSize=26;horizontalStack=0;resizeParent=1;resizeLast=0;collapsible=1;marginBottom=0;rounded=0;shadow=0;strokeWidth=1;" parent="WIyWlLk6GJQsqaUBKTNV-1" vertex="1">
          <mxGeometry x="330" y="360" width="160" height="70" as="geometry">
            <mxRectangle x="340" y="380" width="170" height="26" as="alternateBounds" />
          </mxGeometry>
        </mxCell>
        <mxCell id="zkfFHV4jXpPFQw0GAbJ--14" value="Salary" style="text;align=left;verticalAlign=top;spacingLeft=4;spacingRight=4;overflow=hidden;rotatable=0;points=[[0,0.5],[1,0.5]];portConstraint=eastwest;" parent="zkfFHV4jXpPFQw0GAbJ--13" vertex="1">
          <mxGeometry y="26" width="160" height="26" as="geometry" />
        </mxCell>
        <mxCell id="zkfFHV4jXpPFQw0GAbJ--15" value="" style="line;html=1;strokeWidth=1;align=left;verticalAlign=middle;spacingTop=-1;spacingLeft=3;spacingRight=3;rotatable=0;labelPosition=right;points=[];portConstraint=eastwest;" parent="zkfFHV4jXpPFQw0GAbJ--13" vertex="1">
          <mxGeometry y="52" width="160" height="8" as="geometry" />
        </mxCell>
        <mxCell id="zkfFHV4jXpPFQw0GAbJ--16" value="" style="endArrow=block;endSize=10;endFill=0;shadow=0;strokeWidth=1;rounded=0;edgeStyle=elbowEdgeStyle;elbow=vertical;" parent="WIyWlLk6GJQsqaUBKTNV-1" source="zkfFHV4jXpPFQw0GAbJ--13" target="zkfFHV4jXpPFQw0GAbJ--0" edge="1">
          <mxGeometry width="160" relative="1" as="geometry">
            <mxPoint x="210" y="373" as="sourcePoint" />
            <mxPoint x="310" y="271" as="targetPoint" />
          </mxGeometry>
        </mxCell>
        <mxCell id="zkfFHV4jXpPFQw0GAbJ--17" value="Address" style="swimlane;fontStyle=0;align=center;verticalAlign=top;childLayout=stackLayout;horizontal=1;startSize=26;horizontalStack=0;resizeParent=1;resizeLast=0;collapsible=1;marginBottom=0;rounded=0;shadow=0;strokeWidth=1;" parent="WIyWlLk6GJQsqaUBKTNV-1" vertex="1">
          <mxGeometry x="508" y="120" width="160" height="216" as="geometry">
            <mxRectangle x="550" y="140" width="160" height="26" as="alternateBounds" />
          </mxGeometry>
        </mxCell>
        <mxCell id="zkfFHV4jXpPFQw0GAbJ--18" value="Street" style="text;align=left;verticalAlign=top;spacingLeft=4;spacingRight=4;overflow=hidden;rotatable=0;points=[[0,0.5],[1,0.5]];portConstraint=eastwest;" parent="zkfFHV4jXpPFQw0GAbJ--17" vertex="1">
          <mxGeometry y="26" width="160" height="26" as="geometry" />
        </mxCell>
        <mxCell id="zkfFHV4jXpPFQw0GAbJ--19" value="City" style="text;align=left;verticalAlign=top;spacingLeft=4;spacingRight=4;overflow=hidden;rotatable=0;points=[[0,0.5],[1,0.5]];portConstraint=eastwest;rounded=0;shadow=0;html=0;" parent="zkfFHV4jXpPFQw0GAbJ--17" vertex="1">
          <mxGeometry y="52" width="160" height="26" as="geometry" />
        </mxCell>
        <mxCell id="zkfFHV4jXpPFQw0GAbJ--20" value="State" style="text;align=left;verticalAlign=top;spacingLeft=4;spacingRight=4;overflow=hidden;rotatable=0;points=[[0,0.5],[1,0.5]];portConstraint=eastwest;rounded=0;shadow=0;html=0;" parent="zkfFHV4jXpPFQw0GAbJ--17" vertex="1">
          <mxGeometry y="78" width="160" height="26" as="geometry" />
        </mxCell>
        <mxCell id="zkfFHV4jXpPFQw0GAbJ--21" value="Postal Code" style="text;align=left;verticalAlign=top;spacingLeft=4;spacingRight=4;overflow=hidden;rotatable=0;points=[[0,0.5],[1,0.5]];portConstraint=eastwest;rounded=0;shadow=0;html=0;" parent="zkfFHV4jXpPFQw0GAbJ--17" vertex="1">
          <mxGeometry y="104" width="160" height="26" as="geometry" />
        </mxCell>
        <mxCell id="zkfFHV4jXpPFQw0GAbJ--22" value="Country" style="text;align=left;verticalAlign=top;spacingLeft=4;spacingRight=4;overflow=hidden;rotatable=0;points=[[0,0.5],[1,0.5]];portConstraint=eastwest;rounded=0;shadow=0;html=0;" parent="zkfFHV4jXpPFQw0GAbJ--17" vertex="1">
          <mxGeometry y="130" width="160" height="26" as="geometry" />
        </mxCell>
        <mxCell id="zkfFHV4jXpPFQw0GAbJ--23" value="" style="line;html=1;strokeWidth=1;align=left;verticalAlign=middle;spacingTop=-1;spacingLeft=3;spacingRight=3;rotatable=0;labelPosition=right;points=[];portConstraint=eastwest;" parent="zkfFHV4jXpPFQw0GAbJ--17" vertex="1">
          <mxGeometry y="156" width="160" height="8" as="geometry" />
        </mxCell>
        <mxCell id="zkfFHV4jXpPFQw0GAbJ--24" value="Validate" style="text;align=left;verticalAlign=top;spacingLeft=4;spacingRight=4;overflow=hidden;rotatable=0;points=[[0,0.5],[1,0.5]];portConstraint=eastwest;" parent="zkfFHV4jXpPFQw0GAbJ--17" vertex="1">
          <mxGeometry y="164" width="160" height="26" as="geometry" />
        </mxCell>
        <mxCell id="zkfFHV4jXpPFQw0GAbJ--25" value="Output As Label" style="text;align=left;verticalAlign=top;spacingLeft=4;spacingRight=4;overflow=hidden;rotatable=0;points=[[0,0.5],[1,0.5]];portConstraint=eastwest;" parent="zkfFHV4jXpPFQw0GAbJ--17" vertex="1">
          <mxGeometry y="190" width="160" height="26" as="geometry" />
        </mxCell>
        <mxCell id="zkfFHV4jXpPFQw0GAbJ--26" value="" style="endArrow=open;shadow=0;strokeWidth=1;rounded=0;endFill=1;edgeStyle=elbowEdgeStyle;elbow=vertical;" parent="WIyWlLk6GJQsqaUBKTNV-1" source="zkfFHV4jXpPFQw0GAbJ--0" target="zkfFHV4jXpPFQw0GAbJ--17" edge="1">
          <mxGeometry x="0.5" y="41" relative="1" as="geometry">
            <mxPoint x="380" y="192" as="sourcePoint" />
            <mxPoint x="540" y="192" as="targetPoint" />
            <mxPoint x="-40" y="32" as="offset" />
          </mxGeometry>
        </mxCell>
        <mxCell id="zkfFHV4jXpPFQw0GAbJ--27" value="0..1" style="resizable=0;align=left;verticalAlign=bottom;labelBackgroundColor=none;fontSize=12;" parent="zkfFHV4jXpPFQw0GAbJ--26" connectable="0" vertex="1">
          <mxGeometry x="-1" relative="1" as="geometry">
            <mxPoint y="4" as="offset" />
          </mxGeometry>
        </mxCell>
        <mxCell id="zkfFHV4jXpPFQw0GAbJ--28" value="1" style="resizable=0;align=right;verticalAlign=bottom;labelBackgroundColor=none;fontSize=12;" parent="zkfFHV4jXpPFQw0GAbJ--26" connectable="0" vertex="1">
          <mxGeometry x="1" relative="1" as="geometry">
            <mxPoint x="-7" y="4" as="offset" />
          </mxGeometry>
        </mxCell>
        <mxCell id="zkfFHV4jXpPFQw0GAbJ--29" value="lives at" style="text;html=1;resizable=0;points=[];;align=center;verticalAlign=middle;labelBackgroundColor=none;rounded=0;shadow=0;strokeWidth=1;fontSize=12;" parent="zkfFHV4jXpPFQw0GAbJ--26" vertex="1" connectable="0">
          <mxGeometry x="0.5" y="49" relative="1" as="geometry">
            <mxPoint x="-38" y="40" as="offset" />
          </mxGeometry>
        </mxCell>
      </root>
    </mxGraphModel>
  </diagram>
  <diagram id="R2WsI8bMDiYC8gbG4Pv0" name="Page-2">
    <mxGraphModel dx="946" dy="576" grid="1" gridSize="10" guides="1" tooltips="1" connect="1" arrows="1" fold="1" page="1" pageScale="1" pageWidth="827" pageHeight="1169" math="0" shadow="0">
      <root>
        <mxCell id="Ssen99IWPcayrpJe9YvS-0" />
        <mxCell id="Ssen99IWPcayrpJe9YvS-1" parent="Ssen99IWPcayrpJe9YvS-0" />
        <mxCell id="Ssen99IWPcayrpJe9YvS-3" value="用户" style="rounded=1;whiteSpace=wrap;html=1;fontFamily=Verdana;align=center;" vertex="1" parent="Ssen99IWPcayrpJe9YvS-1">
          <mxGeometry x="140" y="210" width="120" height="60" as="geometry" />
        </mxCell>
        <mxCell id="Ssen99IWPcayrpJe9YvS-19" value="编号" style="ellipse;whiteSpace=wrap;html=1;rounded=1;fontFamily=Verdana;" vertex="1" parent="Ssen99IWPcayrpJe9YvS-1">
          <mxGeometry x="60" y="140" width="80" height="40" as="geometry" />
        </mxCell>
        <mxCell id="Ssen99IWPcayrpJe9YvS-20" value="账号" style="ellipse;whiteSpace=wrap;html=1;rounded=1;fontFamily=Verdana;" vertex="1" parent="Ssen99IWPcayrpJe9YvS-1">
          <mxGeometry x="150" y="140" width="80" height="40" as="geometry" />
        </mxCell>
        <mxCell id="Ssen99IWPcayrpJe9YvS-21" value="密码" style="ellipse;whiteSpace=wrap;html=1;rounded=1;fontFamily=Verdana;" vertex="1" parent="Ssen99IWPcayrpJe9YvS-1">
          <mxGeometry x="240" y="140" width="80" height="40" as="geometry" />
        </mxCell>
        <mxCell id="Ssen99IWPcayrpJe9YvS-22" value="" style="endArrow=none;html=1;fontFamily=Verdana;fontSize=12;exitX=0.5;exitY=1;exitDx=0;exitDy=0;entryX=0.5;entryY=0;entryDx=0;entryDy=0;" edge="1" parent="Ssen99IWPcayrpJe9YvS-1" source="Ssen99IWPcayrpJe9YvS-21" target="Ssen99IWPcayrpJe9YvS-3">
          <mxGeometry width="50" height="50" relative="1" as="geometry">
            <mxPoint x="310" y="270" as="sourcePoint" />
            <mxPoint x="360" y="220" as="targetPoint" />
          </mxGeometry>
        </mxCell>
        <mxCell id="Ssen99IWPcayrpJe9YvS-23" value="" style="endArrow=none;html=1;fontFamily=Verdana;fontSize=12;exitX=0.5;exitY=1;exitDx=0;exitDy=0;entryX=0.5;entryY=0;entryDx=0;entryDy=0;" edge="1" parent="Ssen99IWPcayrpJe9YvS-1" source="Ssen99IWPcayrpJe9YvS-20" target="Ssen99IWPcayrpJe9YvS-3">
          <mxGeometry width="50" height="50" relative="1" as="geometry">
            <mxPoint x="310" y="270" as="sourcePoint" />
            <mxPoint x="360" y="220" as="targetPoint" />
          </mxGeometry>
        </mxCell>
        <mxCell id="Ssen99IWPcayrpJe9YvS-24" value="" style="endArrow=none;html=1;fontFamily=Verdana;fontSize=12;exitX=0.5;exitY=0;exitDx=0;exitDy=0;entryX=0.5;entryY=1;entryDx=0;entryDy=0;" edge="1" parent="Ssen99IWPcayrpJe9YvS-1" source="Ssen99IWPcayrpJe9YvS-3" target="Ssen99IWPcayrpJe9YvS-19">
          <mxGeometry width="50" height="50" relative="1" as="geometry">
            <mxPoint x="310" y="270" as="sourcePoint" />
            <mxPoint x="360" y="220" as="targetPoint" />
          </mxGeometry>
        </mxCell>
        <mxCell id="Ssen99IWPcayrpJe9YvS-25" value="角色" style="rounded=1;whiteSpace=wrap;html=1;fontFamily=Verdana;align=center;" vertex="1" parent="Ssen99IWPcayrpJe9YvS-1">
          <mxGeometry x="140" y="380" width="120" height="60" as="geometry" />
        </mxCell>
        <mxCell id="Ssen99IWPcayrpJe9YvS-26" value="" style="endArrow=none;html=1;fontFamily=Verdana;fontSize=12;exitX=0.5;exitY=1;exitDx=0;exitDy=0;entryX=0.5;entryY=0;entryDx=0;entryDy=0;startArrow=none;" edge="1" parent="Ssen99IWPcayrpJe9YvS-1" source="Ssen99IWPcayrpJe9YvS-27" target="Ssen99IWPcayrpJe9YvS-25">
          <mxGeometry width="50" height="50" relative="1" as="geometry">
            <mxPoint x="310" y="270" as="sourcePoint" />
            <mxPoint x="360" y="220" as="targetPoint" />
          </mxGeometry>
        </mxCell>
        <mxCell id="Ssen99IWPcayrpJe9YvS-43" value="n" style="edgeLabel;html=1;align=center;verticalAlign=middle;resizable=0;points=[];fontSize=12;fontFamily=Verdana;" vertex="1" connectable="0" parent="Ssen99IWPcayrpJe9YvS-26">
          <mxGeometry x="-0.2" y="4" relative="1" as="geometry">
            <mxPoint as="offset" />
          </mxGeometry>
        </mxCell>
        <mxCell id="Ssen99IWPcayrpJe9YvS-28" value="编号" style="ellipse;whiteSpace=wrap;html=1;rounded=1;fontFamily=Verdana;" vertex="1" parent="Ssen99IWPcayrpJe9YvS-1">
          <mxGeometry x="20" y="340" width="80" height="40" as="geometry" />
        </mxCell>
        <mxCell id="Ssen99IWPcayrpJe9YvS-29" value="角色名称" style="ellipse;whiteSpace=wrap;html=1;rounded=1;fontFamily=Verdana;" vertex="1" parent="Ssen99IWPcayrpJe9YvS-1">
          <mxGeometry x="20" y="390" width="80" height="40" as="geometry" />
        </mxCell>
        <mxCell id="Ssen99IWPcayrpJe9YvS-30" value="规则" style="ellipse;whiteSpace=wrap;html=1;rounded=1;fontFamily=Verdana;" vertex="1" parent="Ssen99IWPcayrpJe9YvS-1">
          <mxGeometry x="20" y="440" width="80" height="40" as="geometry" />
        </mxCell>
        <mxCell id="Ssen99IWPcayrpJe9YvS-31" value="" style="endArrow=none;html=1;fontFamily=Verdana;fontSize=12;entryX=0;entryY=0.5;entryDx=0;entryDy=0;exitX=1;exitY=0.5;exitDx=0;exitDy=0;" edge="1" parent="Ssen99IWPcayrpJe9YvS-1" source="Ssen99IWPcayrpJe9YvS-30" target="Ssen99IWPcayrpJe9YvS-25">
          <mxGeometry width="50" height="50" relative="1" as="geometry">
            <mxPoint x="270" y="420" as="sourcePoint" />
            <mxPoint x="320" y="370" as="targetPoint" />
          </mxGeometry>
        </mxCell>
        <mxCell id="Ssen99IWPcayrpJe9YvS-32" value="" style="endArrow=none;html=1;fontFamily=Verdana;fontSize=12;entryX=0;entryY=0.5;entryDx=0;entryDy=0;exitX=1;exitY=0.5;exitDx=0;exitDy=0;" edge="1" parent="Ssen99IWPcayrpJe9YvS-1" source="Ssen99IWPcayrpJe9YvS-29" target="Ssen99IWPcayrpJe9YvS-25">
          <mxGeometry width="50" height="50" relative="1" as="geometry">
            <mxPoint x="270" y="420" as="sourcePoint" />
            <mxPoint x="320" y="370" as="targetPoint" />
          </mxGeometry>
        </mxCell>
        <mxCell id="Ssen99IWPcayrpJe9YvS-33" value="" style="endArrow=none;html=1;fontFamily=Verdana;fontSize=12;exitX=0;exitY=0.5;exitDx=0;exitDy=0;entryX=1;entryY=0.5;entryDx=0;entryDy=0;" edge="1" parent="Ssen99IWPcayrpJe9YvS-1" source="Ssen99IWPcayrpJe9YvS-25" target="Ssen99IWPcayrpJe9YvS-28">
          <mxGeometry width="50" height="50" relative="1" as="geometry">
            <mxPoint x="270" y="420" as="sourcePoint" />
            <mxPoint x="320" y="370" as="targetPoint" />
          </mxGeometry>
        </mxCell>
        <mxCell id="Ssen99IWPcayrpJe9YvS-27" value="拥有" style="html=1;whiteSpace=wrap;aspect=fixed;shape=isoRectangle;fontFamily=Verdana;fontSize=12;strokeWidth=1;align=center;" vertex="1" parent="Ssen99IWPcayrpJe9YvS-1">
          <mxGeometry x="150" y="300" width="100" height="60" as="geometry" />
        </mxCell>
        <mxCell id="Ssen99IWPcayrpJe9YvS-41" value="" style="endArrow=none;html=1;fontFamily=Verdana;fontSize=12;exitX=0.5;exitY=1;exitDx=0;exitDy=0;entryX=0.5;entryY=0;entryDx=0;entryDy=0;fontStyle=0" edge="1" parent="Ssen99IWPcayrpJe9YvS-1" source="Ssen99IWPcayrpJe9YvS-3" target="Ssen99IWPcayrpJe9YvS-27">
          <mxGeometry width="50" height="50" relative="1" as="geometry">
            <mxPoint x="200" y="270" as="sourcePoint" />
            <mxPoint x="200" y="380" as="targetPoint" />
          </mxGeometry>
        </mxCell>
        <mxCell id="Ssen99IWPcayrpJe9YvS-42" value="1" style="edgeLabel;html=1;align=center;verticalAlign=middle;resizable=0;points=[];fontSize=12;fontFamily=Verdana;" vertex="1" connectable="0" parent="Ssen99IWPcayrpJe9YvS-41">
          <mxGeometry x="0.2" y="4" relative="1" as="geometry">
            <mxPoint as="offset" />
          </mxGeometry>
        </mxCell>
        <mxCell id="Ssen99IWPcayrpJe9YvS-47" value="系统管理员" style="html=1;whiteSpace=wrap;aspect=fixed;shape=isoRectangle;fontFamily=Verdana;fontSize=12;strokeWidth=1;align=center;" vertex="1" parent="Ssen99IWPcayrpJe9YvS-1">
          <mxGeometry x="340" y="290" width="100" height="60" as="geometry" />
        </mxCell>
        <mxCell id="Ssen99IWPcayrpJe9YvS-48" value="销售主管" style="html=1;whiteSpace=wrap;aspect=fixed;shape=isoRectangle;fontFamily=Verdana;fontSize=12;strokeWidth=1;align=center;" vertex="1" parent="Ssen99IWPcayrpJe9YvS-1">
          <mxGeometry x="340" y="510" width="100" height="60" as="geometry" />
        </mxCell>
        <mxCell id="Ssen99IWPcayrpJe9YvS-49" value="销售员" style="html=1;whiteSpace=wrap;aspect=fixed;shape=isoRectangle;fontFamily=Verdana;fontSize=12;strokeWidth=1;align=center;" vertex="1" parent="Ssen99IWPcayrpJe9YvS-1">
          <mxGeometry x="340" y="390" width="100" height="60" as="geometry" />
        </mxCell>
        <mxCell id="Ssen99IWPcayrpJe9YvS-53" value="" style="endArrow=none;html=1;fontFamily=Verdana;fontSize=12;exitX=0;exitY=0.567;exitDx=0;exitDy=0;entryX=1;entryY=0.5;entryDx=0;entryDy=0;startArrow=none;exitPerimeter=0;" edge="1" parent="Ssen99IWPcayrpJe9YvS-1" source="Ssen99IWPcayrpJe9YvS-47" target="Ssen99IWPcayrpJe9YvS-25">
          <mxGeometry width="50" height="50" relative="1" as="geometry">
            <mxPoint x="210" y="370" as="sourcePoint" />
            <mxPoint x="210" y="390" as="targetPoint" />
          </mxGeometry>
        </mxCell>
        <mxCell id="Ssen99IWPcayrpJe9YvS-54" value="n" style="edgeLabel;html=1;align=center;verticalAlign=middle;resizable=0;points=[];fontSize=12;fontFamily=Verdana;" vertex="1" connectable="0" parent="Ssen99IWPcayrpJe9YvS-53">
          <mxGeometry x="-0.2" y="4" relative="1" as="geometry">
            <mxPoint as="offset" />
          </mxGeometry>
        </mxCell>
        <mxCell id="Ssen99IWPcayrpJe9YvS-55" value="" style="endArrow=none;html=1;fontFamily=Verdana;fontSize=12;exitX=0;exitY=0.5;exitDx=0;exitDy=0;entryX=1;entryY=0.5;entryDx=0;entryDy=0;startArrow=none;exitPerimeter=0;" edge="1" parent="Ssen99IWPcayrpJe9YvS-1" source="Ssen99IWPcayrpJe9YvS-49" target="Ssen99IWPcayrpJe9YvS-25">
          <mxGeometry width="50" height="50" relative="1" as="geometry">
            <mxPoint x="220" y="380" as="sourcePoint" />
            <mxPoint x="220" y="400" as="targetPoint" />
          </mxGeometry>
        </mxCell>
        <mxCell id="Ssen99IWPcayrpJe9YvS-56" value="n" style="edgeLabel;html=1;align=center;verticalAlign=middle;resizable=0;points=[];fontSize=12;fontFamily=Verdana;" vertex="1" connectable="0" parent="Ssen99IWPcayrpJe9YvS-55">
          <mxGeometry x="-0.2" y="4" relative="1" as="geometry">
            <mxPoint as="offset" />
          </mxGeometry>
        </mxCell>
        <mxCell id="Ssen99IWPcayrpJe9YvS-57" value="" style="endArrow=none;html=1;fontFamily=Verdana;fontSize=12;exitX=-0.01;exitY=0.533;exitDx=0;exitDy=0;entryX=1;entryY=0.5;entryDx=0;entryDy=0;startArrow=none;exitPerimeter=0;" edge="1" parent="Ssen99IWPcayrpJe9YvS-1" source="Ssen99IWPcayrpJe9YvS-48" target="Ssen99IWPcayrpJe9YvS-25">
          <mxGeometry width="50" height="50" relative="1" as="geometry">
            <mxPoint x="230" y="390" as="sourcePoint" />
            <mxPoint x="230" y="410" as="targetPoint" />
          </mxGeometry>
        </mxCell>
        <mxCell id="Ssen99IWPcayrpJe9YvS-58" value="n" style="edgeLabel;html=1;align=center;verticalAlign=middle;resizable=0;points=[];fontSize=12;fontFamily=Verdana;" vertex="1" connectable="0" parent="Ssen99IWPcayrpJe9YvS-57">
          <mxGeometry x="-0.2" y="4" relative="1" as="geometry">
            <mxPoint as="offset" />
          </mxGeometry>
        </mxCell>
        <mxCell id="Ssen99IWPcayrpJe9YvS-59" value="数据权限" style="ellipse;whiteSpace=wrap;html=1;rounded=1;fontFamily=Verdana;" vertex="1" parent="Ssen99IWPcayrpJe9YvS-1">
          <mxGeometry x="20" y="490" width="80" height="40" as="geometry" />
        </mxCell>
        <mxCell id="Ssen99IWPcayrpJe9YvS-60" value="" style="endArrow=none;html=1;fontFamily=Verdana;fontSize=12;exitX=1;exitY=0.5;exitDx=0;exitDy=0;" edge="1" parent="Ssen99IWPcayrpJe9YvS-1" source="Ssen99IWPcayrpJe9YvS-59">
          <mxGeometry width="50" height="50" relative="1" as="geometry">
            <mxPoint x="110" y="470" as="sourcePoint" />
            <mxPoint x="140" y="410" as="targetPoint" />
          </mxGeometry>
        </mxCell>
        <mxCell id="Ssen99IWPcayrpJe9YvS-62" value="" style="endArrow=none;html=1;fontFamily=Verdana;fontSize=12;exitX=0;exitY=0.5;exitDx=0;exitDy=0;entryX=0.992;entryY=0.4;entryDx=0;entryDy=0;startArrow=none;exitPerimeter=0;entryPerimeter=0;" edge="1" parent="Ssen99IWPcayrpJe9YvS-1" source="Ssen99IWPcayrpJe9YvS-47" target="Ssen99IWPcayrpJe9YvS-3">
          <mxGeometry width="50" height="50" relative="1" as="geometry">
            <mxPoint x="350" y="334.02" as="sourcePoint" />
            <mxPoint x="270" y="420" as="targetPoint" />
          </mxGeometry>
        </mxCell>
        <mxCell id="Ssen99IWPcayrpJe9YvS-63" value="1" style="edgeLabel;html=1;align=center;verticalAlign=middle;resizable=0;points=[];fontSize=12;fontFamily=Verdana;" vertex="1" connectable="0" parent="Ssen99IWPcayrpJe9YvS-62">
          <mxGeometry x="-0.2" y="4" relative="1" as="geometry">
            <mxPoint as="offset" />
          </mxGeometry>
        </mxCell>
        <mxCell id="Ssen99IWPcayrpJe9YvS-64" value="自定义字段设置" style="rounded=1;whiteSpace=wrap;html=1;fontFamily=Verdana;align=center;" vertex="1" parent="Ssen99IWPcayrpJe9YvS-1">
          <mxGeometry x="560" y="250" width="120" height="60" as="geometry" />
        </mxCell>
        <mxCell id="Ssen99IWPcayrpJe9YvS-66" value="编号" style="ellipse;whiteSpace=wrap;html=1;rounded=1;fontFamily=Verdana;" vertex="1" parent="Ssen99IWPcayrpJe9YvS-1">
          <mxGeometry x="460" y="140" width="80" height="40" as="geometry" />
        </mxCell>
        <mxCell id="Ssen99IWPcayrpJe9YvS-67" value="分类" style="ellipse;whiteSpace=wrap;html=1;rounded=1;fontFamily=Verdana;" vertex="1" parent="Ssen99IWPcayrpJe9YvS-1">
          <mxGeometry x="550" y="140" width="80" height="40" as="geometry" />
        </mxCell>
        <mxCell id="Ssen99IWPcayrpJe9YvS-68" value="分类编号" style="ellipse;whiteSpace=wrap;html=1;rounded=1;fontFamily=Verdana;" vertex="1" parent="Ssen99IWPcayrpJe9YvS-1">
          <mxGeometry x="650" y="140" width="80" height="40" as="geometry" />
        </mxCell>
        <mxCell id="Ssen99IWPcayrpJe9YvS-69" value="字段名" style="ellipse;whiteSpace=wrap;html=1;rounded=1;fontFamily=Verdana;" vertex="1" parent="Ssen99IWPcayrpJe9YvS-1">
          <mxGeometry x="740" y="140" width="80" height="40" as="geometry" />
        </mxCell>
        <mxCell id="Ssen99IWPcayrpJe9YvS-70" value="标识名" style="ellipse;whiteSpace=wrap;html=1;rounded=1;fontFamily=Verdana;" vertex="1" parent="Ssen99IWPcayrpJe9YvS-1">
          <mxGeometry x="400" y="200" width="80" height="40" as="geometry" />
        </mxCell>
        <mxCell id="Ssen99IWPcayrpJe9YvS-71" value="字段类型" style="ellipse;whiteSpace=wrap;html=1;rounded=1;fontFamily=Verdana;" vertex="1" parent="Ssen99IWPcayrpJe9YvS-1">
          <mxGeometry x="747" y="200" width="80" height="40" as="geometry" />
        </mxCell>
        <mxCell id="Ssen99IWPcayrpJe9YvS-72" value="" style="endArrow=none;html=1;fontFamily=Verdana;fontSize=12;exitX=0.5;exitY=1;exitDx=0;exitDy=0;entryX=0.5;entryY=0;entryDx=0;entryDy=0;" edge="1" parent="Ssen99IWPcayrpJe9YvS-1" source="Ssen99IWPcayrpJe9YvS-69" target="Ssen99IWPcayrpJe9YvS-64">
          <mxGeometry width="50" height="50" relative="1" as="geometry">
            <mxPoint x="540" y="180" as="sourcePoint" />
            <mxPoint x="620" y="250" as="targetPoint" />
          </mxGeometry>
        </mxCell>
        <mxCell id="Ssen99IWPcayrpJe9YvS-73" value="" style="endArrow=none;html=1;fontFamily=Verdana;fontSize=12;exitX=0.425;exitY=1;exitDx=0;exitDy=0;entryX=0.5;entryY=0;entryDx=0;entryDy=0;exitPerimeter=0;" edge="1" parent="Ssen99IWPcayrpJe9YvS-1" source="Ssen99IWPcayrpJe9YvS-68" target="Ssen99IWPcayrpJe9YvS-64">
          <mxGeometry width="50" height="50" relative="1" as="geometry">
            <mxPoint x="550" y="190" as="sourcePoint" />
            <mxPoint x="470" y="220" as="targetPoint" />
          </mxGeometry>
        </mxCell>
        <mxCell id="Ssen99IWPcayrpJe9YvS-74" value="" style="endArrow=none;html=1;fontFamily=Verdana;fontSize=12;exitX=0.5;exitY=1;exitDx=0;exitDy=0;entryX=0.5;entryY=0;entryDx=0;entryDy=0;" edge="1" parent="Ssen99IWPcayrpJe9YvS-1" source="Ssen99IWPcayrpJe9YvS-67" target="Ssen99IWPcayrpJe9YvS-64">
          <mxGeometry width="50" height="50" relative="1" as="geometry">
            <mxPoint x="560" y="200" as="sourcePoint" />
            <mxPoint x="480" y="230" as="targetPoint" />
          </mxGeometry>
        </mxCell>
        <mxCell id="Ssen99IWPcayrpJe9YvS-75" value="" style="endArrow=none;html=1;fontFamily=Verdana;fontSize=12;entryX=0.5;entryY=0;entryDx=0;entryDy=0;exitX=0.5;exitY=1;exitDx=0;exitDy=0;" edge="1" parent="Ssen99IWPcayrpJe9YvS-1" source="Ssen99IWPcayrpJe9YvS-66" target="Ssen99IWPcayrpJe9YvS-64">
          <mxGeometry width="50" height="50" relative="1" as="geometry">
            <mxPoint x="570" y="210" as="sourcePoint" />
            <mxPoint x="490" y="240" as="targetPoint" />
          </mxGeometry>
        </mxCell>
        <mxCell id="Ssen99IWPcayrpJe9YvS-76" value="" style="endArrow=none;html=1;fontFamily=Verdana;fontSize=12;exitX=0;exitY=0.5;exitDx=0;exitDy=0;entryX=0.5;entryY=0;entryDx=0;entryDy=0;" edge="1" parent="Ssen99IWPcayrpJe9YvS-1" source="Ssen99IWPcayrpJe9YvS-71" target="Ssen99IWPcayrpJe9YvS-64">
          <mxGeometry width="50" height="50" relative="1" as="geometry">
            <mxPoint x="790" y="190" as="sourcePoint" />
            <mxPoint x="650" y="230" as="targetPoint" />
          </mxGeometry>
        </mxCell>
        <mxCell id="Ssen99IWPcayrpJe9YvS-77" value="" style="endArrow=none;html=1;fontFamily=Verdana;fontSize=12;exitX=1;exitY=0.5;exitDx=0;exitDy=0;entryX=0;entryY=0;entryDx=0;entryDy=0;" edge="1" parent="Ssen99IWPcayrpJe9YvS-1" source="Ssen99IWPcayrpJe9YvS-70" target="Ssen99IWPcayrpJe9YvS-64">
          <mxGeometry width="50" height="50" relative="1" as="geometry">
            <mxPoint x="800" y="200" as="sourcePoint" />
            <mxPoint x="610" y="250" as="targetPoint" />
          </mxGeometry>
        </mxCell>
        <mxCell id="Ssen99IWPcayrpJe9YvS-80" value="手机号" style="ellipse;whiteSpace=wrap;html=1;rounded=1;fontFamily=Verdana;" vertex="1" parent="Ssen99IWPcayrpJe9YvS-1">
          <mxGeometry x="10" y="190" width="80" height="40" as="geometry" />
        </mxCell>
        <mxCell id="Ssen99IWPcayrpJe9YvS-81" value="" style="endArrow=none;html=1;fontFamily=Verdana;fontSize=12;exitX=0;exitY=0;exitDx=0;exitDy=0;entryX=1;entryY=0.5;entryDx=0;entryDy=0;" edge="1" parent="Ssen99IWPcayrpJe9YvS-1" source="Ssen99IWPcayrpJe9YvS-3" target="Ssen99IWPcayrpJe9YvS-80">
          <mxGeometry width="50" height="50" relative="1" as="geometry">
            <mxPoint x="210" y="220" as="sourcePoint" />
            <mxPoint x="110" y="190" as="targetPoint" />
          </mxGeometry>
        </mxCell>
        <mxCell id="Ssen99IWPcayrpJe9YvS-83" value="权限规则" style="rounded=1;whiteSpace=wrap;html=1;fontFamily=Verdana;align=center;" vertex="1" parent="Ssen99IWPcayrpJe9YvS-1">
          <mxGeometry x="140" y="570" width="120" height="60" as="geometry" />
        </mxCell>
        <mxCell id="Ssen99IWPcayrpJe9YvS-85" value="" style="endArrow=none;html=1;fontFamily=Verdana;fontSize=12;exitX=0.5;exitY=1;exitDx=0;exitDy=0;entryX=0.5;entryY=0;entryDx=0;entryDy=0;" edge="1" parent="Ssen99IWPcayrpJe9YvS-1" source="Ssen99IWPcayrpJe9YvS-25" target="Ssen99IWPcayrpJe9YvS-83">
          <mxGeometry width="50" height="50" relative="1" as="geometry">
            <mxPoint x="400" y="420" as="sourcePoint" />
            <mxPoint x="450" y="370" as="targetPoint" />
          </mxGeometry>
        </mxCell>
        <mxCell id="Ssen99IWPcayrpJe9YvS-87" value="1" style="edgeLabel;html=1;align=center;verticalAlign=middle;resizable=0;points=[];fontSize=12;fontFamily=Verdana;" vertex="1" connectable="0" parent="Ssen99IWPcayrpJe9YvS-85">
          <mxGeometry x="-0.8" y="-1" relative="1" as="geometry">
            <mxPoint as="offset" />
          </mxGeometry>
        </mxCell>
        <mxCell id="Ssen99IWPcayrpJe9YvS-90" value="n" style="edgeLabel;html=1;align=center;verticalAlign=middle;resizable=0;points=[];fontSize=12;fontFamily=Verdana;" vertex="1" connectable="0" parent="Ssen99IWPcayrpJe9YvS-85">
          <mxGeometry x="0.75" y="-1" relative="1" as="geometry">
            <mxPoint as="offset" />
          </mxGeometry>
        </mxCell>
        <mxCell id="Ssen99IWPcayrpJe9YvS-86" value="拥有" style="html=1;whiteSpace=wrap;aspect=fixed;shape=isoRectangle;fontFamily=Verdana;fontSize=12;strokeWidth=1;align=center;" vertex="1" parent="Ssen99IWPcayrpJe9YvS-1">
          <mxGeometry x="150" y="480" width="100" height="60" as="geometry" />
        </mxCell>
        <mxCell id="Ssen99IWPcayrpJe9YvS-91" value="编号" style="ellipse;whiteSpace=wrap;html=1;rounded=1;fontFamily=Verdana;" vertex="1" parent="Ssen99IWPcayrpJe9YvS-1">
          <mxGeometry x="20" y="560" width="80" height="40" as="geometry" />
        </mxCell>
        <mxCell id="Ssen99IWPcayrpJe9YvS-93" value="定义" style="ellipse;whiteSpace=wrap;html=1;rounded=1;fontFamily=Verdana;" vertex="1" parent="Ssen99IWPcayrpJe9YvS-1">
          <mxGeometry x="120" y="680" width="80" height="40" as="geometry" />
        </mxCell>
        <mxCell id="Ssen99IWPcayrpJe9YvS-94" value="模块" style="ellipse;whiteSpace=wrap;html=1;rounded=1;fontFamily=Verdana;" vertex="1" parent="Ssen99IWPcayrpJe9YvS-1">
          <mxGeometry x="20" y="620" width="80" height="40" as="geometry" />
        </mxCell>
        <mxCell id="Ssen99IWPcayrpJe9YvS-95" value="名称" style="ellipse;whiteSpace=wrap;html=1;rounded=1;fontFamily=Verdana;" vertex="1" parent="Ssen99IWPcayrpJe9YvS-1">
          <mxGeometry x="20" y="680" width="80" height="40" as="geometry" />
        </mxCell>
        <mxCell id="Ssen99IWPcayrpJe9YvS-96" value="父级编号" style="ellipse;whiteSpace=wrap;html=1;rounded=1;fontFamily=Verdana;" vertex="1" parent="Ssen99IWPcayrpJe9YvS-1">
          <mxGeometry x="220" y="680" width="80" height="40" as="geometry" />
        </mxCell>
        <mxCell id="Ssen99IWPcayrpJe9YvS-98" value="" style="endArrow=none;html=1;fontFamily=Verdana;fontSize=12;exitX=0;exitY=0.5;exitDx=0;exitDy=0;entryX=1;entryY=0.5;entryDx=0;entryDy=0;" edge="1" parent="Ssen99IWPcayrpJe9YvS-1" source="Ssen99IWPcayrpJe9YvS-83" target="Ssen99IWPcayrpJe9YvS-91">
          <mxGeometry width="50" height="50" relative="1" as="geometry">
            <mxPoint x="110" y="520" as="sourcePoint" />
            <mxPoint x="150" y="420" as="targetPoint" />
          </mxGeometry>
        </mxCell>
        <mxCell id="Ssen99IWPcayrpJe9YvS-99" value="" style="endArrow=none;html=1;fontFamily=Verdana;fontSize=12;exitX=0;exitY=0.5;exitDx=0;exitDy=0;entryX=1;entryY=0.5;entryDx=0;entryDy=0;" edge="1" parent="Ssen99IWPcayrpJe9YvS-1" source="Ssen99IWPcayrpJe9YvS-83" target="Ssen99IWPcayrpJe9YvS-94">
          <mxGeometry width="50" height="50" relative="1" as="geometry">
            <mxPoint x="150" y="610" as="sourcePoint" />
            <mxPoint x="110" y="590" as="targetPoint" />
          </mxGeometry>
        </mxCell>
        <mxCell id="Ssen99IWPcayrpJe9YvS-100" value="" style="endArrow=none;html=1;fontFamily=Verdana;fontSize=12;exitX=0;exitY=0.5;exitDx=0;exitDy=0;entryX=1;entryY=0.5;entryDx=0;entryDy=0;" edge="1" parent="Ssen99IWPcayrpJe9YvS-1" source="Ssen99IWPcayrpJe9YvS-83" target="Ssen99IWPcayrpJe9YvS-95">
          <mxGeometry width="50" height="50" relative="1" as="geometry">
            <mxPoint x="160" y="620" as="sourcePoint" />
            <mxPoint x="120" y="600" as="targetPoint" />
          </mxGeometry>
        </mxCell>
        <mxCell id="Ssen99IWPcayrpJe9YvS-101" value="" style="endArrow=none;html=1;fontFamily=Verdana;fontSize=12;exitX=0.5;exitY=1;exitDx=0;exitDy=0;entryX=0.5;entryY=0;entryDx=0;entryDy=0;" edge="1" parent="Ssen99IWPcayrpJe9YvS-1" source="Ssen99IWPcayrpJe9YvS-83" target="Ssen99IWPcayrpJe9YvS-93">
          <mxGeometry width="50" height="50" relative="1" as="geometry">
            <mxPoint x="170" y="630" as="sourcePoint" />
            <mxPoint x="130" y="610" as="targetPoint" />
          </mxGeometry>
        </mxCell>
        <mxCell id="Ssen99IWPcayrpJe9YvS-102" value="" style="endArrow=none;html=1;fontFamily=Verdana;fontSize=12;exitX=0.5;exitY=0;exitDx=0;exitDy=0;entryX=0.5;entryY=1;entryDx=0;entryDy=0;" edge="1" parent="Ssen99IWPcayrpJe9YvS-1" source="Ssen99IWPcayrpJe9YvS-96" target="Ssen99IWPcayrpJe9YvS-83">
          <mxGeometry width="50" height="50" relative="1" as="geometry">
            <mxPoint x="180" y="640" as="sourcePoint" />
            <mxPoint x="140" y="620" as="targetPoint" />
          </mxGeometry>
        </mxCell>
        <mxCell id="Ssen99IWPcayrpJe9YvS-103" value="客户" style="rounded=1;whiteSpace=wrap;html=1;fontFamily=Verdana;align=center;" vertex="1" parent="Ssen99IWPcayrpJe9YvS-1">
          <mxGeometry x="640" y="640" width="120" height="60" as="geometry" />
        </mxCell>
        <mxCell id="Ssen99IWPcayrpJe9YvS-104" value="线索" style="rounded=1;whiteSpace=wrap;html=1;fontFamily=Verdana;align=center;" vertex="1" parent="Ssen99IWPcayrpJe9YvS-1">
          <mxGeometry x="590" y="380" width="120" height="60" as="geometry" />
        </mxCell>
        <mxCell id="Ssen99IWPcayrpJe9YvS-107" value="" style="endArrow=none;html=1;fontFamily=Verdana;fontSize=12;exitX=0;exitY=0.5;exitDx=0;exitDy=0;entryX=0.98;entryY=0.517;entryDx=0;entryDy=0;fontStyle=0;entryPerimeter=0;" edge="1" parent="Ssen99IWPcayrpJe9YvS-1">
          <mxGeometry width="50" height="50" relative="1" as="geometry">
            <mxPoint x="560" y="280" as="sourcePoint" />
            <mxPoint x="438" y="321.02" as="targetPoint" />
          </mxGeometry>
        </mxCell>
        <mxCell id="Ssen99IWPcayrpJe9YvS-108" value="1" style="edgeLabel;html=1;align=center;verticalAlign=middle;resizable=0;points=[];fontSize=12;fontFamily=Verdana;" vertex="1" connectable="0" parent="Ssen99IWPcayrpJe9YvS-107">
          <mxGeometry x="0.2" y="4" relative="1" as="geometry">
            <mxPoint as="offset" />
          </mxGeometry>
        </mxCell>
        <mxCell id="Ssen99IWPcayrpJe9YvS-117" value="拥有" style="html=1;whiteSpace=wrap;aspect=fixed;shape=isoRectangle;fontFamily=Verdana;fontSize=12;strokeWidth=1;align=center;" vertex="1" parent="Ssen99IWPcayrpJe9YvS-1">
          <mxGeometry x="450" y="450" width="100" height="60" as="geometry" />
        </mxCell>
        <mxCell id="Ssen99IWPcayrpJe9YvS-118" value="" style="endArrow=none;html=1;fontFamily=Verdana;fontSize=12;entryX=0.46;entryY=0.917;entryDx=0;entryDy=0;entryPerimeter=0;" edge="1" parent="Ssen99IWPcayrpJe9YvS-1" target="Ssen99IWPcayrpJe9YvS-117">
          <mxGeometry width="50" height="50" relative="1" as="geometry">
            <mxPoint x="440" y="540" as="sourcePoint" />
            <mxPoint x="438" y="490" as="targetPoint" />
          </mxGeometry>
        </mxCell>
        <mxCell id="Ssen99IWPcayrpJe9YvS-119" value="" style="endArrow=none;html=1;fontFamily=Verdana;fontSize=12;entryX=0.48;entryY=0.033;entryDx=0;entryDy=0;entryPerimeter=0;" edge="1" parent="Ssen99IWPcayrpJe9YvS-1" target="Ssen99IWPcayrpJe9YvS-117">
          <mxGeometry width="50" height="50" relative="1" as="geometry">
            <mxPoint x="438" y="424" as="sourcePoint" />
            <mxPoint x="485" y="503.98" as="targetPoint" />
          </mxGeometry>
        </mxCell>
        <mxCell id="Ssen99IWPcayrpJe9YvS-120" value="公海" style="rounded=1;whiteSpace=wrap;html=1;fontFamily=Verdana;align=center;" vertex="1" parent="Ssen99IWPcayrpJe9YvS-1">
          <mxGeometry x="400" y="650" width="120" height="60" as="geometry" />
        </mxCell>
        <mxCell id="Ssen99IWPcayrpJe9YvS-121" value="" style="endArrow=none;html=1;fontFamily=Verdana;fontSize=12;exitX=0;exitY=0.5;exitDx=0;exitDy=0;startArrow=none;entryX=1;entryY=0.533;entryDx=0;entryDy=0;entryPerimeter=0;" edge="1" parent="Ssen99IWPcayrpJe9YvS-1" source="Ssen99IWPcayrpJe9YvS-104" target="Ssen99IWPcayrpJe9YvS-117">
          <mxGeometry width="50" height="50" relative="1" as="geometry">
            <mxPoint x="349" y="551.98" as="sourcePoint" />
            <mxPoint x="270" y="420" as="targetPoint" />
          </mxGeometry>
        </mxCell>
        <mxCell id="Ssen99IWPcayrpJe9YvS-122" value="n" style="edgeLabel;html=1;align=center;verticalAlign=middle;resizable=0;points=[];fontSize=12;fontFamily=Verdana;" vertex="1" connectable="0" parent="Ssen99IWPcayrpJe9YvS-121">
          <mxGeometry x="-0.2" y="4" relative="1" as="geometry">
            <mxPoint as="offset" />
          </mxGeometry>
        </mxCell>
        <mxCell id="Ssen99IWPcayrpJe9YvS-123" value="" style="endArrow=none;html=1;fontFamily=Verdana;fontSize=12;exitX=0.5;exitY=0;exitDx=0;exitDy=0;startArrow=none;entryX=0.96;entryY=0.533;entryDx=0;entryDy=0;entryPerimeter=0;" edge="1" parent="Ssen99IWPcayrpJe9YvS-1" source="Ssen99IWPcayrpJe9YvS-120" target="Ssen99IWPcayrpJe9YvS-117">
          <mxGeometry width="50" height="50" relative="1" as="geometry">
            <mxPoint x="600" y="510" as="sourcePoint" />
            <mxPoint x="560" y="491.98" as="targetPoint" />
          </mxGeometry>
        </mxCell>
        <mxCell id="Ssen99IWPcayrpJe9YvS-124" value="n" style="edgeLabel;html=1;align=center;verticalAlign=middle;resizable=0;points=[];fontSize=12;fontFamily=Verdana;" vertex="1" connectable="0" parent="Ssen99IWPcayrpJe9YvS-123">
          <mxGeometry x="-0.2" y="4" relative="1" as="geometry">
            <mxPoint as="offset" />
          </mxGeometry>
        </mxCell>
        <mxCell id="Ssen99IWPcayrpJe9YvS-125" value="" style="endArrow=none;html=1;fontFamily=Verdana;fontSize=12;startArrow=none;entryX=0.5;entryY=0;entryDx=0;entryDy=0;exitX=0.5;exitY=1;exitDx=0;exitDy=0;" edge="1" parent="Ssen99IWPcayrpJe9YvS-1" source="Ssen99IWPcayrpJe9YvS-104" target="Ssen99IWPcayrpJe9YvS-103">
          <mxGeometry width="50" height="50" relative="1" as="geometry">
            <mxPoint x="550" y="480" as="sourcePoint" />
            <mxPoint x="570" y="501.98" as="targetPoint" />
          </mxGeometry>
        </mxCell>
        <mxCell id="Ssen99IWPcayrpJe9YvS-126" value="1" style="edgeLabel;html=1;align=center;verticalAlign=middle;resizable=0;points=[];fontSize=12;fontFamily=Verdana;" vertex="1" connectable="0" parent="Ssen99IWPcayrpJe9YvS-125">
          <mxGeometry x="-0.2" y="4" relative="1" as="geometry">
            <mxPoint as="offset" />
          </mxGeometry>
        </mxCell>
        <mxCell id="Ssen99IWPcayrpJe9YvS-128" value="编号" style="ellipse;whiteSpace=wrap;html=1;rounded=1;fontFamily=Verdana;" vertex="1" parent="Ssen99IWPcayrpJe9YvS-1">
          <mxGeometry x="780" y="270" width="80" height="40" as="geometry" />
        </mxCell>
        <mxCell id="Ssen99IWPcayrpJe9YvS-129" value="" style="endArrow=none;html=1;fontFamily=Verdana;fontSize=12;startArrow=none;entryX=0;entryY=0.5;entryDx=0;entryDy=0;exitX=1;exitY=0.5;exitDx=0;exitDy=0;" edge="1" parent="Ssen99IWPcayrpJe9YvS-1" source="Ssen99IWPcayrpJe9YvS-120" target="Ssen99IWPcayrpJe9YvS-103">
          <mxGeometry width="50" height="50" relative="1" as="geometry">
            <mxPoint x="720" y="520" as="sourcePoint" />
            <mxPoint x="780" y="520" as="targetPoint" />
          </mxGeometry>
        </mxCell>
        <mxCell id="Ssen99IWPcayrpJe9YvS-130" value="1" style="edgeLabel;html=1;align=center;verticalAlign=middle;resizable=0;points=[];fontSize=12;fontFamily=Verdana;" vertex="1" connectable="0" parent="Ssen99IWPcayrpJe9YvS-129">
          <mxGeometry x="-0.2" y="4" relative="1" as="geometry">
            <mxPoint as="offset" />
          </mxGeometry>
        </mxCell>
        <mxCell id="Ssen99IWPcayrpJe9YvS-131" value="转化客户id" style="ellipse;whiteSpace=wrap;html=1;rounded=1;fontFamily=Verdana;" vertex="1" parent="Ssen99IWPcayrpJe9YvS-1">
          <mxGeometry x="780" y="330" width="80" height="40" as="geometry" />
        </mxCell>
        <mxCell id="Ssen99IWPcayrpJe9YvS-132" value="姓名" style="ellipse;whiteSpace=wrap;html=1;rounded=1;fontFamily=Verdana;" vertex="1" parent="Ssen99IWPcayrpJe9YvS-1">
          <mxGeometry x="780" y="390" width="80" height="40" as="geometry" />
        </mxCell>
        <mxCell id="Ssen99IWPcayrpJe9YvS-133" value="手机" style="ellipse;whiteSpace=wrap;html=1;rounded=1;fontFamily=Verdana;" vertex="1" parent="Ssen99IWPcayrpJe9YvS-1">
          <mxGeometry x="780" y="450" width="80" height="40" as="geometry" />
        </mxCell>
        <mxCell id="Ssen99IWPcayrpJe9YvS-134" value="跟进时间" style="ellipse;whiteSpace=wrap;html=1;rounded=1;fontFamily=Verdana;" vertex="1" parent="Ssen99IWPcayrpJe9YvS-1">
          <mxGeometry x="780" y="500" width="80" height="40" as="geometry" />
        </mxCell>
        <mxCell id="Ssen99IWPcayrpJe9YvS-135" value="" style="endArrow=none;html=1;fontFamily=Verdana;fontSize=12;exitX=0;exitY=0.5;exitDx=0;exitDy=0;entryX=1;entryY=0.5;entryDx=0;entryDy=0;" edge="1" parent="Ssen99IWPcayrpJe9YvS-1" source="Ssen99IWPcayrpJe9YvS-128" target="Ssen99IWPcayrpJe9YvS-104">
          <mxGeometry width="50" height="50" relative="1" as="geometry">
            <mxPoint x="757" y="230" as="sourcePoint" />
            <mxPoint x="630" y="260" as="targetPoint" />
          </mxGeometry>
        </mxCell>
        <mxCell id="Ssen99IWPcayrpJe9YvS-136" value="" style="endArrow=none;html=1;fontFamily=Verdana;fontSize=12;exitX=0;exitY=0.5;exitDx=0;exitDy=0;entryX=1;entryY=0.5;entryDx=0;entryDy=0;" edge="1" parent="Ssen99IWPcayrpJe9YvS-1" source="Ssen99IWPcayrpJe9YvS-131" target="Ssen99IWPcayrpJe9YvS-104">
          <mxGeometry width="50" height="50" relative="1" as="geometry">
            <mxPoint x="790" y="300" as="sourcePoint" />
            <mxPoint x="720" y="420" as="targetPoint" />
          </mxGeometry>
        </mxCell>
        <mxCell id="Ssen99IWPcayrpJe9YvS-137" value="" style="endArrow=none;html=1;fontFamily=Verdana;fontSize=12;exitX=0;exitY=0.5;exitDx=0;exitDy=0;entryX=1;entryY=0.5;entryDx=0;entryDy=0;" edge="1" parent="Ssen99IWPcayrpJe9YvS-1" source="Ssen99IWPcayrpJe9YvS-132" target="Ssen99IWPcayrpJe9YvS-104">
          <mxGeometry width="50" height="50" relative="1" as="geometry">
            <mxPoint x="800" y="310" as="sourcePoint" />
            <mxPoint x="730" y="430" as="targetPoint" />
          </mxGeometry>
        </mxCell>
        <mxCell id="Ssen99IWPcayrpJe9YvS-138" value="" style="endArrow=none;html=1;fontFamily=Verdana;fontSize=12;exitX=0;exitY=0.5;exitDx=0;exitDy=0;entryX=1;entryY=0.5;entryDx=0;entryDy=0;" edge="1" parent="Ssen99IWPcayrpJe9YvS-1" source="Ssen99IWPcayrpJe9YvS-133" target="Ssen99IWPcayrpJe9YvS-104">
          <mxGeometry width="50" height="50" relative="1" as="geometry">
            <mxPoint x="810" y="320" as="sourcePoint" />
            <mxPoint x="740" y="440" as="targetPoint" />
          </mxGeometry>
        </mxCell>
        <mxCell id="Ssen99IWPcayrpJe9YvS-139" value="" style="endArrow=none;html=1;fontFamily=Verdana;fontSize=12;exitX=0;exitY=0.5;exitDx=0;exitDy=0;entryX=1;entryY=0.5;entryDx=0;entryDy=0;" edge="1" parent="Ssen99IWPcayrpJe9YvS-1" source="Ssen99IWPcayrpJe9YvS-134" target="Ssen99IWPcayrpJe9YvS-104">
          <mxGeometry width="50" height="50" relative="1" as="geometry">
            <mxPoint x="820" y="330" as="sourcePoint" />
            <mxPoint x="750" y="450" as="targetPoint" />
          </mxGeometry>
        </mxCell>
        <mxCell id="Ssen99IWPcayrpJe9YvS-140" value="下次联系时间" style="ellipse;whiteSpace=wrap;html=1;rounded=1;fontFamily=Verdana;" vertex="1" parent="Ssen99IWPcayrpJe9YvS-1">
          <mxGeometry x="780" y="545" width="80" height="40" as="geometry" />
        </mxCell>
        <mxCell id="Ssen99IWPcayrpJe9YvS-141" value="" style="endArrow=none;html=1;fontFamily=Verdana;fontSize=12;exitX=0;exitY=0.5;exitDx=0;exitDy=0;entryX=1;entryY=0.5;entryDx=0;entryDy=0;" edge="1" parent="Ssen99IWPcayrpJe9YvS-1" source="Ssen99IWPcayrpJe9YvS-140" target="Ssen99IWPcayrpJe9YvS-104">
          <mxGeometry width="50" height="50" relative="1" as="geometry">
            <mxPoint x="790" y="530" as="sourcePoint" />
            <mxPoint x="720" y="420" as="targetPoint" />
          </mxGeometry>
        </mxCell>
        <mxCell id="Ssen99IWPcayrpJe9YvS-142" value="跟进记录" style="rounded=1;whiteSpace=wrap;html=1;fontFamily=Verdana;align=center;" vertex="1" parent="Ssen99IWPcayrpJe9YvS-1">
          <mxGeometry x="850" y="640" width="120" height="60" as="geometry" />
        </mxCell>
        <mxCell id="Ssen99IWPcayrpJe9YvS-143" value="" style="endArrow=none;html=1;fontFamily=Verdana;fontSize=12;exitX=1;exitY=0.5;exitDx=0;exitDy=0;startArrow=none;entryX=0;entryY=0.5;entryDx=0;entryDy=0;" edge="1" parent="Ssen99IWPcayrpJe9YvS-1" source="Ssen99IWPcayrpJe9YvS-103" target="Ssen99IWPcayrpJe9YvS-142">
          <mxGeometry width="50" height="50" relative="1" as="geometry">
            <mxPoint x="470" y="660" as="sourcePoint" />
            <mxPoint x="556" y="491.98" as="targetPoint" />
          </mxGeometry>
        </mxCell>
        <mxCell id="Ssen99IWPcayrpJe9YvS-144" value="n" style="edgeLabel;html=1;align=center;verticalAlign=middle;resizable=0;points=[];fontSize=12;fontFamily=Verdana;" vertex="1" connectable="0" parent="Ssen99IWPcayrpJe9YvS-143">
          <mxGeometry x="-0.2" y="4" relative="1" as="geometry">
            <mxPoint as="offset" />
          </mxGeometry>
        </mxCell>
        <mxCell id="Ssen99IWPcayrpJe9YvS-145" value="编号" style="ellipse;whiteSpace=wrap;html=1;rounded=1;fontFamily=Verdana;" vertex="1" parent="Ssen99IWPcayrpJe9YvS-1">
          <mxGeometry x="1000" y="490" width="80" height="40" as="geometry" />
        </mxCell>
        <mxCell id="Ssen99IWPcayrpJe9YvS-146" value="关联类型" style="ellipse;whiteSpace=wrap;html=1;rounded=1;fontFamily=Verdana;" vertex="1" parent="Ssen99IWPcayrpJe9YvS-1">
          <mxGeometry x="1000" y="545" width="80" height="40" as="geometry" />
        </mxCell>
        <mxCell id="Ssen99IWPcayrpJe9YvS-147" value="类型id" style="ellipse;whiteSpace=wrap;html=1;rounded=1;fontFamily=Verdana;" vertex="1" parent="Ssen99IWPcayrpJe9YvS-1">
          <mxGeometry x="1000" y="600" width="80" height="40" as="geometry" />
        </mxCell>
        <mxCell id="Ssen99IWPcayrpJe9YvS-148" value="跟进内容" style="ellipse;whiteSpace=wrap;html=1;rounded=1;fontFamily=Verdana;" vertex="1" parent="Ssen99IWPcayrpJe9YvS-1">
          <mxGeometry x="1000" y="650" width="80" height="40" as="geometry" />
        </mxCell>
        <mxCell id="Ssen99IWPcayrpJe9YvS-149" value="下次联系时间" style="ellipse;whiteSpace=wrap;html=1;rounded=1;fontFamily=Verdana;" vertex="1" parent="Ssen99IWPcayrpJe9YvS-1">
          <mxGeometry x="1000" y="710" width="80" height="40" as="geometry" />
        </mxCell>
        <mxCell id="Ssen99IWPcayrpJe9YvS-150" value="创建人" style="ellipse;whiteSpace=wrap;html=1;rounded=1;fontFamily=Verdana;" vertex="1" parent="Ssen99IWPcayrpJe9YvS-1">
          <mxGeometry x="1000" y="770" width="80" height="40" as="geometry" />
        </mxCell>
        <mxCell id="Ssen99IWPcayrpJe9YvS-151" value="" style="endArrow=none;html=1;fontFamily=Verdana;fontSize=12;exitX=0;exitY=0.5;exitDx=0;exitDy=0;entryX=1;entryY=0.5;entryDx=0;entryDy=0;" edge="1" parent="Ssen99IWPcayrpJe9YvS-1" source="Ssen99IWPcayrpJe9YvS-145" target="Ssen99IWPcayrpJe9YvS-142">
          <mxGeometry width="50" height="50" relative="1" as="geometry">
            <mxPoint x="790" y="420" as="sourcePoint" />
            <mxPoint x="720" y="420" as="targetPoint" />
          </mxGeometry>
        </mxCell>
        <mxCell id="Ssen99IWPcayrpJe9YvS-152" value="" style="endArrow=none;html=1;fontFamily=Verdana;fontSize=12;exitX=0;exitY=0.5;exitDx=0;exitDy=0;entryX=1;entryY=0.5;entryDx=0;entryDy=0;" edge="1" parent="Ssen99IWPcayrpJe9YvS-1" source="Ssen99IWPcayrpJe9YvS-146" target="Ssen99IWPcayrpJe9YvS-142">
          <mxGeometry width="50" height="50" relative="1" as="geometry">
            <mxPoint x="1010" y="520" as="sourcePoint" />
            <mxPoint x="980" y="680" as="targetPoint" />
          </mxGeometry>
        </mxCell>
        <mxCell id="Ssen99IWPcayrpJe9YvS-153" value="" style="endArrow=none;html=1;fontFamily=Verdana;fontSize=12;exitX=0;exitY=0.5;exitDx=0;exitDy=0;entryX=1;entryY=0.5;entryDx=0;entryDy=0;" edge="1" parent="Ssen99IWPcayrpJe9YvS-1" source="Ssen99IWPcayrpJe9YvS-147" target="Ssen99IWPcayrpJe9YvS-142">
          <mxGeometry width="50" height="50" relative="1" as="geometry">
            <mxPoint x="1020" y="530" as="sourcePoint" />
            <mxPoint x="990" y="690" as="targetPoint" />
          </mxGeometry>
        </mxCell>
        <mxCell id="Ssen99IWPcayrpJe9YvS-154" value="" style="endArrow=none;html=1;fontFamily=Verdana;fontSize=12;exitX=0;exitY=0.5;exitDx=0;exitDy=0;entryX=1;entryY=0.5;entryDx=0;entryDy=0;" edge="1" parent="Ssen99IWPcayrpJe9YvS-1" source="Ssen99IWPcayrpJe9YvS-148" target="Ssen99IWPcayrpJe9YvS-142">
          <mxGeometry width="50" height="50" relative="1" as="geometry">
            <mxPoint x="1030" y="540" as="sourcePoint" />
            <mxPoint x="1000" y="700" as="targetPoint" />
          </mxGeometry>
        </mxCell>
        <mxCell id="Ssen99IWPcayrpJe9YvS-155" value="" style="endArrow=none;html=1;fontFamily=Verdana;fontSize=12;exitX=0;exitY=0.5;exitDx=0;exitDy=0;entryX=1;entryY=0.5;entryDx=0;entryDy=0;" edge="1" parent="Ssen99IWPcayrpJe9YvS-1" source="Ssen99IWPcayrpJe9YvS-149" target="Ssen99IWPcayrpJe9YvS-142">
          <mxGeometry width="50" height="50" relative="1" as="geometry">
            <mxPoint x="1040" y="550" as="sourcePoint" />
            <mxPoint x="1010" y="710" as="targetPoint" />
          </mxGeometry>
        </mxCell>
        <mxCell id="Ssen99IWPcayrpJe9YvS-156" value="" style="endArrow=none;html=1;fontFamily=Verdana;fontSize=12;exitX=0;exitY=0.5;exitDx=0;exitDy=0;entryX=1;entryY=0.5;entryDx=0;entryDy=0;" edge="1" parent="Ssen99IWPcayrpJe9YvS-1" source="Ssen99IWPcayrpJe9YvS-150" target="Ssen99IWPcayrpJe9YvS-142">
          <mxGeometry width="50" height="50" relative="1" as="geometry">
            <mxPoint x="1050" y="560" as="sourcePoint" />
            <mxPoint x="1020" y="720" as="targetPoint" />
          </mxGeometry>
        </mxCell>
      </root>
    </mxGraphModel>
  </diagram>
</mxfile>
